# xmcd
#
# Track frame offsets: 
#        150
#        12790
#        27685
#        40360
#        49615
#        61110
#        74605
#        88800
#        103990
#        114280
#        125152
#        138850
#        150670
#        162115
#
# Disc length: 2343 seconds
#
# Revision: 0
# Processed by: cddbd v1.5.2PL0 Copyright (c) Steve Scherf et al.
# Submitted via: ExactAudioCopy v0.95b2
#
DISCID=bf09250e
DTITLE=Various Artist - Country Era de Ouro Ed. Histórica
DYEAR=1900
DGENRE=Country
TTITLE0=Kenny Rogers - Ruby (Don't take your love to town)
TTITLE1=Tina Turner - Good hearted woman
TTITLE2=Willie Nelson -  I just don't understand
TTITLE3=Frankie Lane - Rawhide
TTITLE4=Patsy Cline - Walking after midnight
TTITLE5=Tammy Wynette - Stand by your man
TTITLE6=Freddie Fender - Jambalaya
TTITLE7=Merle Haggard - Okie from Muskogee
TTITLE8=Conway Twitty - Let me be the Judge
TTITLE9=Guy Mitchell - Singing the blues
TTITLE10=Willie Nelson - Home is where you're happy
TTITLE11=Kenny Rogers - Me and Bobby McGee
TTITLE12=Tina Turner - Soul deep
TTITLE13=The Kingston Trio - M.T.A.
EXTD=
EXTT0=
EXTT1=
EXTT2=
EXTT3=
EXTT4=
EXTT5=
EXTT6=
EXTT7=
EXTT8=
EXTT9=
EXTT10=
EXTT11=
EXTT12=
EXTT13=
PLAYORDER=
